<?xml version="1.0" encoding="utf-8"?>
<!-- Generator: Adobe Illustrator 19.1.0, SVG Export Plug-In . SVG Version: 6.00 Build 0)  -->
<svg version="1.1" id="Layer_1" xmlns="http://www.w3.org/2000/svg" xmlns:xlink="http://www.w3.org/1999/xlink" x="0px" y="0px"
	 viewBox="0 0 62 69.7" style="enable-background:new 0 0 62 69.7;" xml:space="preserve">
<style type="text/css">
	.st0{fill:#414141;}
</style>
<g>
	<g>
		<path class="st0" d="M5.8,29.3l8.4,2.8c0,0,0,0,0,0.1l-6.8,3.6L9,39.1c0,0,0,0,0,0l0,0l10-5.3c0,0,0.1,0,0.1,0l3.4,1.2
			c0,0,0.1,0,0.1,0.1c0,0.2,0,0.5,0,0.8c0,2.1,0.8,4.1,2,5.6c0,0,0,0.1,0,0.1l-2.1,3c0,0-0.1,0.1-0.1,0.1l-11,1.8l0.6,3.7l7.5-1.2
			c0,0,0,0,0,0l-5.2,7.4l2.9,2.2l5.2-7.4c0,0,0,0,0.1,0l1.2,7.8l3.6-0.6l-1.8-11.5c0,0,0-0.1,0-0.1l2.1-3c0,0,0.1-0.1,0.1,0
			c1,0.4,2.1,0.7,3.2,0.7c1.1,0,2.2-0.2,3.2-0.7c0,0,0.1,0,0.1,0l2.1,3c0,0,0,0.1,0,0.1l-1.7,11.5l3.6,0.6l1.2-7.8c0,0,0,0,0.1,0
			l5.2,7.4l2.9-2.2l-5.2-7.4c0,0,0-0.1,0,0l7.5,1.2c0,0,0.3-2,0.6-3.7h0l-11-1.8c0,0-0.1,0-0.1-0.1l-2.1-3c0,0,0-0.1,0-0.1
			c1.2-1.5,2-3.5,2-5.6c0-0.3,0-0.5,0-0.8c0,0,0-0.1,0.1-0.1l3.4-1.2c0,0,0.1,0,0.1,0l10,5.3l1.6-3.3l-6.8-3.6c0,0,0,0,0-0.1
			l8.4-2.8l-1.1-3.6l-8.4,2.8c0,0,0,0,0,0l3.4-7.1l-3.2-1.7l0,0l0,0l-5.1,10.4c0,0-0.1,0.1-0.1,0.1L38,31.4c0,0-0.1,0-0.1,0
			c-1.1-2-3-3.4-5.2-3.9c0,0-0.1,0-0.1-0.1v-3.8c0,0,0-0.1,0-0.1l7.9-8.2L38,12.5l-5.4,5.6c0,0,0,0,0,0V9H29v9.2c0,0,0,0,0,0
			l-5.4-5.6c0,0-1,1-2.6,2.6c0,0,0,0,0,0l0,0l7.9,8.2c0,0,0,0.1,0,0.1v3.8c0,0,0,0.1-0.1,0.1c-2.2,0.5-4.1,2-5.2,3.9
			c0,0-0.1,0-0.1,0l-3.4-1.2c0,0-0.1,0-0.1-0.1l-5.1-10.4l-3.2,1.7l3.4,7.1c0,0,0,0,0,0l-8.4-2.8L5.8,29.3z M30.8,30.9
			c2.6,0,4.6,2.2,4.6,4.8c0,2.7-2.1,4.8-4.6,4.8c-2.6,0-4.6-2.2-4.6-4.8C26.2,33.1,28.3,30.9,30.8,30.9z"/>
	</g>
</g>
</svg>
