<?xml version="1.0" encoding="utf-8"?>
<!-- Generator: Adobe Illustrator 19.1.0, SVG Export Plug-In . SVG Version: 6.00 Build 0)  -->
<svg version="1.1" id="Layer_1" xmlns="http://www.w3.org/2000/svg" xmlns:xlink="http://www.w3.org/1999/xlink" x="0px" y="0px"
	 viewBox="0 0 202.7 66" style="enable-background:new 0 0 202.7 66;" xml:space="preserve">
<style type="text/css">
	.st0{fill:#FFFFFF;}
</style>
<g>
	<g>
		<g>
			<path class="st0" d="M50.3,33.5c-0.8-0.9-1.6-1.6-2.6-2.1c-1.2-0.6-2.5-0.9-3.9-0.9c-2.5,0-4.7,0.9-6.4,2.7
				c-1.8,1.8-2.7,4-2.7,6.5c0,2.6,0.9,4.8,2.6,6.6c1.8,1.8,3.9,2.7,6.4,2.7c1.4,0,2.7-0.3,3.9-0.9c1-0.5,1.9-1.2,2.7-2.1v2.5h2.7
				V24.3h-2.7V33.5z M48.6,35.1c1.2,1.3,1.9,2.9,1.9,4.8c0,1.2-0.3,2.4-0.8,3.4c-0.6,1-1.4,1.8-2.4,2.4c-1,0.6-2.1,0.9-3.3,0.9
				c-1.1,0-2.2-0.3-3.2-0.9c-1-0.6-1.8-1.4-2.4-2.5c-0.6-1.1-0.9-2.2-0.9-3.3c0-1.2,0.3-2.3,0.9-3.3c0.6-1,1.4-1.9,2.4-2.4
				c1-0.6,2.1-0.9,3.3-0.9C45.8,33.1,47.4,33.8,48.6,35.1z"/>
			<path class="st0" d="M72.4,33.5c-0.8-0.9-1.6-1.6-2.6-2.1c-1.2-0.6-2.5-0.9-3.9-0.9c-2.5,0-4.7,0.9-6.4,2.7
				c-1.8,1.8-2.7,4-2.7,6.5c0,2.6,0.9,4.8,2.6,6.6c1.8,1.8,3.9,2.7,6.4,2.7c1.4,0,2.7-0.3,3.9-0.9c1-0.5,1.9-1.2,2.7-2.1v2.5h2.7
				V30.9h-2.7V33.5z M70.7,35.1c1.2,1.3,1.9,2.9,1.9,4.8c0,1.2-0.3,2.4-0.8,3.4c-0.6,1-1.4,1.8-2.4,2.4c-1,0.6-2.1,0.9-3.3,0.9
				c-1.1,0-2.2-0.3-3.2-0.9c-1-0.6-1.8-1.4-2.4-2.5c-0.6-1.1-0.9-2.2-0.9-3.3c0-1.2,0.3-2.3,0.9-3.3c0.6-1,1.4-1.9,2.4-2.4
				c1-0.6,2.1-0.9,3.3-0.9C67.9,33.1,69.5,33.8,70.7,35.1z"/>
			<path class="st0" d="M90,30.5c-1.4,0-2.7,0.3-3.9,0.9c-1,0.5-1.9,1.2-2.7,2.1v-9.1h-2.7v24.2h2.7v-2.6c0.8,0.9,1.6,1.6,2.6,2.1
				c1.2,0.6,2.5,0.9,3.9,0.9c2.5,0,4.7-0.9,6.4-2.7c1.8-1.8,2.7-4,2.7-6.5c0-2.6-0.9-4.8-2.6-6.6C94.6,31.4,92.4,30.5,90,30.5z
				 M96.2,39.7c0,1.2-0.3,2.3-0.9,3.3c-0.6,1-1.4,1.9-2.4,2.4c-1,0.6-2.1,0.9-3.3,0.9c-1.8,0-3.4-0.6-4.6-1.9
				c-1.2-1.3-1.9-2.9-1.9-4.8c0-1.2,0.3-2.4,0.8-3.4c0.6-1,1.4-1.8,2.4-2.4c1-0.6,2.1-0.9,3.3-0.9c1.1,0,2.2,0.3,3.2,0.9
				c1,0.6,1.8,1.4,2.4,2.5C95.9,37.4,96.2,38.5,96.2,39.7z"/>
			<path class="st0" d="M112.7,30.5c-1.4,0-2.7,0.3-3.9,0.9c-1,0.5-1.9,1.2-2.7,2.1v-9.1h-2.7v24.2h2.7v-2.6
				c0.8,0.9,1.6,1.6,2.6,2.1c1.2,0.6,2.5,0.9,3.9,0.9c2.5,0,4.7-0.9,6.4-2.7c1.8-1.8,2.7-4,2.7-6.5c0-2.6-0.9-4.8-2.6-6.6
				C117.4,31.4,115.2,30.5,112.7,30.5z M119,39.7c0,1.2-0.3,2.3-0.9,3.3c-0.6,1-1.4,1.9-2.4,2.4c-1,0.6-2.1,0.9-3.2,0.9
				c-1.8,0-3.4-0.6-4.6-1.9c-1.2-1.3-1.9-2.9-1.9-4.8c0-1.2,0.3-2.4,0.8-3.4c0.6-1,1.4-1.8,2.4-2.4c1-0.6,2.1-0.9,3.3-0.9
				c1.1,0,2.2,0.3,3.2,0.9c1,0.6,1.8,1.4,2.4,2.5C118.7,37.4,119,38.5,119,39.7z"/>
			<path class="st0" d="M140.9,30.9v2.6c-0.8-0.9-1.6-1.6-2.6-2.1c-1.2-0.6-2.5-0.9-3.9-0.9c-2.5,0-4.7,0.9-6.4,2.7
				c-1.8,1.8-2.7,4-2.7,6.5c0,2.6,0.9,4.8,2.6,6.6c1.8,1.8,3.9,2.7,6.4,2.7c1.4,0,2.7-0.3,3.9-0.9c1-0.5,1.9-1.2,2.7-2.1v2.5h2.7
				V30.9H140.9z M141,39.8c0,1.2-0.3,2.4-0.8,3.4c-0.6,1-1.4,1.8-2.4,2.4c-1,0.6-2.1,0.9-3.3,0.9c-1.1,0-2.2-0.3-3.2-0.9
				c-1-0.6-1.8-1.4-2.4-2.5c-0.6-1.1-0.9-2.2-0.9-3.3c0-1.2,0.3-2.3,0.9-3.3c0.6-1,1.4-1.9,2.4-2.4c1-0.6,2.1-0.9,3.3-0.9
				c1.8,0,3.4,0.6,4.6,1.9C140.4,36.3,141,37.9,141,39.8z"/>
		</g>
		<g>
			<path class="st0" d="M159.3,27.8L159.3,27.8c-0.2,0.1-0.5,0.4-0.9,0.9c-0.6,0.8-0.9,1.6-0.9,2.5c0,0.8,0.3,2.1,1.6,3.4
				c0.9,0.9,1,1.4,1,1.8c0,0.5-0.2,0.9-0.4,1.2c-0.1,0.2-0.2,0.3-0.3,0.4c0,0-0.1,0.1-0.1,0.1l-0.8,0.6l1.4,1.6l0.2-0.2
				c0,0,0.4-0.2,0.5-0.4c0.2-0.1,0.5-0.4,0.9-0.9c0.6-0.8,0.9-1.6,0.9-2.5c0-0.8-0.3-2.1-1.6-3.4c-0.9-0.9-1-1.4-1-1.8
				c0-0.5,0.2-0.9,0.4-1.2c0.1-0.2,0.2-0.3,0.4-0.4c0.1-0.1,0.6-0.5,0.9-1c0.6-0.8,0.9-1.6,0.9-2.5c0-0.8-0.3-2.1-1.6-3.4
				c-0.9-0.9-1-1.4-1-1.8c0-0.5,0.2-0.9,0.4-1.2c0.1-0.2,0.5-0.5,0.5-0.5l0.8-0.7L160,17l-0.2,0.2c0,0-0.2,0.2-0.4,0.3l0,0l-0.1,0.1
				c-0.1,0.1-0.5,0.4-0.9,0.9c-0.6,0.8-0.9,1.6-0.9,2.5c0,0.8,0.3,2.1,1.6,3.4c0.9,0.9,1,1.4,1,1.8c0,0.5-0.2,0.9-0.4,1.2
				C159.6,27.4,159.4,27.7,159.3,27.8z"/>
			<path class="st0" d="M165.6,27.8L165.6,27.8c-0.2,0.1-0.5,0.4-0.9,0.9c-0.6,0.8-0.9,1.6-0.9,2.5c0,0.8,0.3,2.1,1.6,3.4
				c0.9,0.9,1,1.4,1,1.8c0,0.5-0.2,0.9-0.4,1.2c-0.1,0.2-0.2,0.3-0.3,0.4c0,0-0.1,0.1-0.1,0.1l-0.8,0.6l1.4,1.6l0.2-0.2
				c0,0,0.4-0.2,0.5-0.4c0.1-0.1,0.5-0.4,0.9-0.9c0.6-0.8,0.9-1.6,0.9-2.5c0-0.8-0.3-2.1-1.6-3.4c-0.9-0.9-1-1.4-1-1.8
				c0-0.5,0.2-0.9,0.4-1.2c0.1-0.2,0.2-0.3,0.4-0.4c0.1-0.1,0.6-0.5,0.9-1c0.6-0.8,0.9-1.6,0.9-2.5c0-0.8-0.3-2.1-1.6-3.4
				c-0.9-0.9-1-1.4-1-1.8c0-0.5,0.2-0.9,0.4-1.2c0.1-0.2,0.5-0.5,0.5-0.5l0.8-0.7l-1.4-1.6l-0.2,0.2c0,0-0.2,0.2-0.4,0.3l0,0
				l-0.1,0.1c-0.1,0.1-0.5,0.4-0.9,0.9c-0.6,0.8-0.9,1.6-0.9,2.5c0,0.8,0.3,2.1,1.6,3.4c0.9,0.9,1,1.4,1,1.8c0,0.5-0.2,0.9-0.4,1.2
				C165.9,27.4,165.7,27.7,165.6,27.8z"/>
			<path class="st0" d="M171.9,27.8L171.9,27.8c-0.2,0.1-0.5,0.4-0.9,0.9c-0.6,0.8-0.9,1.6-0.9,2.5c0,0.8,0.3,2.1,1.6,3.4
				c0.9,0.9,1,1.4,1,1.8c0,0.5-0.2,0.9-0.4,1.2c-0.1,0.2-0.2,0.3-0.3,0.4c0,0-0.1,0.1-0.1,0.1l-0.8,0.6l1.4,1.6l0.2-0.2
				c0,0,0.4-0.2,0.5-0.4c0.1-0.1,0.5-0.4,0.9-0.9c0.6-0.8,0.9-1.6,0.9-2.5c0-0.8-0.3-2.1-1.6-3.4c-0.9-0.9-1-1.4-1-1.8
				c0-0.5,0.2-0.9,0.4-1.2c0.1-0.2,0.2-0.3,0.4-0.4c0.1-0.1,0.6-0.5,0.9-1c0.6-0.8,0.9-1.6,0.9-2.5c0-0.8-0.3-2.1-1.6-3.4
				c-0.9-0.9-1-1.4-1-1.8c0-0.5,0.2-0.9,0.4-1.2c0.1-0.2,0.5-0.5,0.5-0.5l0.8-0.7l-1.4-1.6l-0.2,0.2c0,0-0.2,0.2-0.4,0.3l0,0
				l-0.1,0.1c-0.1,0.1-0.5,0.4-0.9,0.9c-0.6,0.8-0.9,1.6-0.9,2.5c0,0.8,0.3,2.1,1.6,3.4c0.9,0.9,1,1.4,1,1.8c0,0.5-0.2,0.9-0.4,1.2
				C172.3,27.4,172,27.7,171.9,27.8z"/>
			<path class="st0" d="M150.7,41.4v2.2h2.6l2.5,4.5l0.3,0.6l20.2,0l0.2,0.1l2.8-5.2h2.6v-2.2H150.7z M176.8,43.6l-1.1,2l0,0
				l-0.4,0.8h-17.9l-0.2-0.4l0,0l-1.3-2.4H176.8z"/>
		</g>
	</g>
</g>
</svg>
