<?xml version="1.0" encoding="utf-8"?>
<!-- Generator: Adobe Illustrator 19.1.0, SVG Export Plug-In . SVG Version: 6.00 Build 0)  -->
<svg version="1.1" id="Layer_1" xmlns="http://www.w3.org/2000/svg" xmlns:xlink="http://www.w3.org/1999/xlink" x="0px" y="0px"
	 viewBox="0 0 62 69.7" style="enable-background:new 0 0 62 69.7;" xml:space="preserve">
<style type="text/css">
	.st0{fill-rule:evenodd;clip-rule:evenodd;fill:#101318;}
</style>
<path class="st0" d="M15.1,31.3c-1.2,3.2-2.3,5.2-3.2,6.8c-0.4,0.7-0.7,1.2-1,1.8c-0.6,1.3-0.9,2.5-0.9,3.6c0.1,1.6,0.8,2.9,2.3,3.7
	c0.8,0.4,1.9,0.6,3.2,0.6c1.8-0.1,4.2-0.8,6.8-1.5c2.3-0.7,4.8-1.4,7.2-1.8c2.3-0.4,4.1-0.4,5.9-0.5c1.6-0.1,3.1-0.1,4.8-0.4
	c1.7-0.3,3.4-1,4.8-2.1c1.9-1.4,3.5-3.4,4.4-5.7c1.6-3.8,1.5-8.1-0.9-11.5c-1.9-2.6-5-5.3-8.3-7.8c-4.7-3.5-9.6-6.4-12-7.4
	c-2.4-1-5.4-1.3-7.7,0c-3.2,1.8-3.1,5.3-3.2,8.6C16.9,22.2,16.8,26.5,15.1,31.3L15.1,31.3z M31.6,28.3l12.8,3.7l-0.5,1.7L31.2,30
	L17.3,42.3l-1.2-1.3l13.7-12.1l-6.5-12.9l1.6-0.8L31.6,28.3L31.6,28.3z M10.5,48.2c0.3,0.2,0.6,0.4,0.9,0.5c1.1,0.6,2.5,0.8,4.1,0.8
	c2-0.1,4.5-0.8,7.2-1.6c2.3-0.7,4.7-1.4,7-1.7c2.2-0.3,4-0.4,5.7-0.5c1.7-0.1,3.2-0.1,5-0.4c2-0.3,3.9-1.2,5.5-2.4
	c2.2-1.6,3.9-3.9,5-6.4c0.3-0.8,0.6-1.6,0.8-2.4c0.1,0.6,0.2,1.2,0.2,1.8c0.3,3.7-0.3,6.8-1.6,9.1c-2.6,4.6-6.3,5.5-11.1,5.9
	c-3,0.2-6.2,0.5-9.8,1.1c-2.5,0.4-4.9,1.1-7.2,1.8c-1.3,0.4-3.3,1-4.7,1c-1.9,0.1-3.4-0.6-4.6-1.8C11.8,51.8,11,50.1,10.5,48.2
	L10.5,48.2z M53.7,35.6c0.4,4.1-0.3,7.5-1.8,10.2c-2.9,5.1-7.2,6.3-12.5,6.8c-3,0.3-6.2,0.5-9.7,1.1c-2.3,0.4-4.7,1.1-7,1.7
	c-1.7,0.5-3.4,1.1-5.1,1.1c-2.5,0.1-4.4-0.8-5.9-2.3c-2.5-2.6-3.3-6.8-3.5-10.3c-0.1-1.7,0.3-3.3,1-4.8c0.3-0.7,0.7-1.3,1.1-1.9
	c0.9-1.5,2-3.4,3.1-6.4c1.6-4.5,1.7-8.7,1.8-13c0.1-4,0.2-7.8,4.1-10.1c2.9-1.6,6.4-1.3,9.3-0.1c2.4,1,7.6,4,12.4,7.6
	c3.4,2.6,6.7,5.4,8.7,8.1C52.1,26.2,53.4,32.1,53.7,35.6z"/>
</svg>
